<?xml version="1.0" ?><!DOCTYPE svg  PUBLIC '-//W3C//DTD SVG 1.1//EN'  'http://www.w3.org/Graphics/SVG/1.1/DTD/svg11.dtd'><svg style="enable-background:new 0 0 2000 2000;" version="1.1" viewBox="0 0 2000 2000" xml:space="preserve" xmlns="http://www.w3.org/2000/svg" xmlns:xlink="http://www.w3.org/1999/xlink"><style type="text/css">
	.st0{display:none;}
	.st1{display:inline;}
	.st2{fill:none;stroke:#231F20;stroke-width:2;stroke-miterlimit:10;}
	.st3{fill:#E96F7B;}
	.st4{fill:#F0867E;}
	.st5{fill:#5F6161;}
	.st6{fill:#F2F3F0;}
	.st7{fill:#7A7FBD;}
	.st8{fill:#85AFDC;}
	.st9{fill:#2D0D1B;}
	.st10{fill:#D5D8CB;}
	.st11{fill:#484C4C;}
	.st12{fill:#937CB8;}
	.st13{fill:#7F60A9;}
	.st14{fill:#999999;}
	.st15{fill:#FFFFFF;}
	.st16{fill:#004AF1;}
	.st17{fill:#3EE2D7;}
</style><g><g class="st0" id="Layer_3"><g class="st1"><rect class="st2" height="1000" width="1000" x="500" y="500"/><rect class="st2" height="706.7" width="706.7" x="646.6" y="646.6"/><circle class="st2" cx="1000" cy="1000" r="500"/><circle class="st2" cx="1000" cy="1000" r="348.7"/><line class="st2" x1="500" x2="1500" y1="500" y2="1500"/><line class="st2" x1="1500" x2="500" y1="500" y2="1500"/><line class="st2" x1="1000" x2="1000" y1="497.4" y2="1500"/><line class="st2" x1="1501.3" x2="498.7" y1="998.7" y2="998.7"/></g></g><g class="st0" id="bg"/><g id="object"><g><path class="st7" d="M1697.6,707.3V408.7c0-73.3-59.4-132.7-132.7-132.7h-431.2c-73.3,0-132.7,59.4-132.7,132.7v597.1h696.6      v-33.2c-40.3-30.3-66.4-78.4-66.4-132.7C1631.2,785.7,1657.3,737.5,1697.6,707.3z M868.3,276H437      c-73.3,0-132.7,59.4-132.7,132.7v298.5c40.3,30.3,66.4,78.4,66.4,132.7c0,54.3-26.1,102.5-66.4,132.7v33.2H1001V408.7      C1001,335.4,941.5,276,868.3,276z"/><path class="st8" d="M1697.6,707.3V408.7c0-73.3-59.4-132.7-132.7-132.7h-331.7c-73.3,0-132.7,59.4-132.7,132.7v597.1h597.1      v-33.2c-40.3-30.3-66.4-78.4-66.4-132.7C1631.2,785.7,1657.3,737.5,1697.6,707.3z M868.3,276H536.5      c-73.3,0-132.7,59.4-132.7,132.7v597.1H1001V408.7C1001,335.4,941.5,276,868.3,276z"/><path class="st13" d="M1697.6,1005.8v132.7c0,73.3-59.4,132.7-132.7,132.7H1001v-265.4H1697.6z"/><path class="st12" d="M1697.6,1092.3v46.2c0,73.3-59.4,132.7-132.7,132.7h-477.5v0c0-98.8,80.1-178.9,178.9-178.9H1697.6z"/><path class="st8" d="M1896.6,972.7v232.2c0,146.6-118.8,265.4-265.4,265.4H370.7c-146.6,0-265.4-118.8-265.4-265.4V972.7h0      c27.7,20.8,62.2,33.2,99.5,33.2c37.3,0,71.8-12.3,99.5-33.2v165.9c0,73.3,59.4,132.7,132.7,132.7h1127.9      c73.3,0,132.7-59.4,132.7-132.7V973.3h0.9c27.6,20.4,61.7,32.5,98.7,32.5C1834.4,1005.8,1868.9,993.5,1896.6,972.7z"/><path class="st13" d="M1001,1005.8v265.4H437c-14.5,0-28.4-2.3-41.5-6.6c-53-17.4-91.3-67.3-91.3-126.1v-132.7H1001z"/><path class="st12" d="M1001,1090.4v180.8H437c-14.5,0-28.4-2.3-41.5-6.6c-4.3-13-6.6-27-6.6-41.5v0      c0-73.3,59.4-132.7,132.7-132.7H1001z"/><path class="st3" d="M599.9,1470.2l-20.2,32.1l-0.7,1l-121.4,191.1c-18,28.5-54.3,38.6-84.1,24.7c-2.6-1.2-5.1-2.5-7.5-4.1      c-19.2-12.2-30.9-33.3-30.9-56.1c0-12.6,3.5-24.9,10.3-35.5l76.3-120.1l20.9-33.2H599.9z"/><path class="st14" d="M579.7,1502.4l-0.7,1l-121.4,191.1c-18,28.5-54.3,38.6-84.1,24.7c-4-8.7-6.2-18.2-6.2-28      c0-12.6,3.5-24.9,10.3-35.5l76.3-120.1v0c13-20.7,35.7-33.2,60.1-33.2H579.7z"/><path class="st3" d="M1682.7,1659c0,24.6-13.4,46.1-33.3,57.6c-9.7,5.6-21,8.8-33.1,8.8c-22.7,0-43.9-11.6-56.1-30.9      l-121.4-191.1l-5.5-8.7l-15.4-24.5h157.2l20.9,33.2l76.3,120.1C1679.1,1634.1,1682.7,1646.4,1682.7,1659z"/><path class="st14" d="M1658.2,1683.5c0,12-3.2,23.3-8.8,33.1c-9.7,5.6-21,8.8-33.1,8.8c-22.7,0-43.9-11.6-56.1-30.9      l-121.4-191.1l-5.5-8.7h78.2c24.4,0,47.1,12.5,60.1,33.2l0,0l76.3,120.1C1654.7,1658.6,1658.2,1670.9,1658.2,1683.5z"/><path class="st10" d="M370.7,840c0,54.3-26.1,102.5-66.4,132.7c-27.7,20.8-62.2,33.2-99.5,33.2c-32.8,0-63.4-9.5-89.2-26      c-3.6-2.3-7-4.7-10.3-7.2h0C65,942.4,38.9,894.2,38.9,840c0-91.6,74.3-165.9,165.9-165.9c37.3,0,71.8,12.3,99.5,33.2      c15.9,12,29.6,26.7,40.4,43.5C361.1,776.5,370.7,807.1,370.7,840z"/><path class="st10" d="M1963,840c0,54.3-26.1,102.4-66.3,132.7c-27.7,20.8-62.2,33.2-99.5,33.2c-32.8,0-63.4-9.5-89.1-26      c-3.3-2.1-6.4-4.3-9.5-6.5c-0.3-0.2-0.6-0.4-0.9-0.7c-40.3-30.3-66.4-78.4-66.4-132.7c0-54.3,26.1-102.4,66.4-132.7      c27.7-20.8,62.2-33.2,99.5-33.2c58.8,0,110.4,30.6,139.9,76.7C1953.5,776.6,1963,807.2,1963,840z"/><path class="st6" d="M370.7,840c0,54.3-26.1,102.5-66.4,132.7c-27.7,20.8-62.2,33.2-99.5,33.2c-32.8,0-63.4-9.5-89.2-26      c-16.4-25.8-26-56.3-26-89.1c0-91.6,74.3-165.9,165.9-165.9c32.8,0,63.4,9.5,89.1,26C361.1,776.5,370.7,807.1,370.7,840z"/><path class="st6" d="M1963,840c0,54.3-26.1,102.4-66.3,132.7c-27.7,20.8-62.2,33.2-99.5,33.2c-32.8,0-63.4-9.5-89.1-26      c-16.5-25.8-26-56.3-26-89.2c0-54.3,26.1-102.4,66.4-132.7c27.7-20.8,62.2-33.2,99.5-33.2c32.8,0,63.4,9.5,89.1,26      C1953.5,776.6,1963,807.2,1963,840z"/><g><path class="st9" d="M1696.6,1020.5H303.4c-8.5,0-15.4-6.9-15.4-15.4V972c0-4.8,2.3-9.4,6.1-12.3       c38.3-28.7,60.2-72.6,60.2-120.4c0-47.8-22-91.7-60.2-120.4c-3.9-2.9-6.1-7.4-6.1-12.3V408c0-81.6,66.4-148.1,148.1-148.1       h431.2c58.1,0,108.5,33.6,132.7,82.4c24.2-48.8,74.6-82.4,132.7-82.4h431.2c81.6,0,148.1,66.4,148.1,148.1v298.5       c0,4.8-2.3,9.4-6.1,12.3c-38.3,28.7-60.2,72.6-60.2,120.4s22,91.7,60.2,120.4c3.9,2.9,6.1,7.4,6.1,12.3v33.2       C1712,1013.6,1705.1,1020.5,1696.6,1020.5z M1015.4,989.8h665.9v-10.3c-42.3-34.6-66.4-85.2-66.4-140.2s24.1-105.6,66.4-140.2       V408c0-64.7-52.6-117.3-117.3-117.3h-431.2c-64.7,0-117.3,52.6-117.3,117.3V989.8z M318.7,989.8h665.9V408       c0-64.7-52.6-117.3-117.3-117.3H436.1c-64.7,0-117.3,52.6-117.3,117.3v291.1c42.3,34.6,66.4,85.2,66.4,140.2       c0,55-24.1,105.6-66.4,140.2V989.8z M1696.6,706.6L1696.6,706.6L1696.6,706.6z"/></g><g><path class="st9" d="M1563.9,1285.9H1000c-8.5,0-15.4-6.9-15.4-15.4v-265.4c0-8.5,6.9-15.4,15.4-15.4h696.6       c8.5,0,15.4,6.9,15.4,15.4v132.7C1712,1219.5,1645.6,1285.9,1563.9,1285.9z M1015.4,1255.2h548.6       c64.7,0,117.3-52.6,117.3-117.3v-117.3h-665.9V1255.2z"/></g><g><path class="st9" d="M1630.3,1484.9H369.7C214.9,1484.9,89,1359,89,1204.2V972c0-8.5,6.9-15.4,15.4-15.4c3.3,0,6.6,1.1,9.2,3.1       c26.2,19.7,57.4,30.1,90.3,30.1c32.9,0,64.1-10.4,90.3-30.1c4.7-3.5,10.9-4.1,16.1-1.5c5.2,2.6,8.5,7.9,8.5,13.7v165.9       c0,64.7,52.6,117.3,117.3,117.3h1127.9c64.7,0,117.3-52.6,117.3-117.3V972.6c0-8.5,6.9-15.4,15.4-15.4h0.9c3.3,0,6.5,1.1,9.1,3       c26,19.3,57,29.5,89.5,29.5c32.9,0,64.1-10.4,90.3-30.1c4.7-3.5,10.9-4.1,16.1-1.5c5.2,2.6,8.5,7.9,8.5,13.7v232.2       C1911,1359,1785.1,1484.9,1630.3,1484.9z M119.7,999.8v204.4c0,137.9,112.2,250,250.1,250h1260.6       c137.9,0,250.1-112.2,250.1-250V999.8c-25.8,13.6-54.4,20.7-84.2,20.7c-29.7,0-58.4-7.1-84.2-20.7v138       c0,81.6-66.4,148.1-148.1,148.1H436.1c-81.6,0-148.1-66.4-148.1-148.1v-138c-25.8,13.6-54.4,20.7-84.2,20.7       C174.1,1020.5,145.5,1013.4,119.7,999.8z"/></g><g><path class="st9" d="M1000,1285.9H436.1c-15.8,0-31.3-2.5-46.2-7.4c-60.9-20-101.8-76.5-101.8-140.7v-132.7       c0-8.5,6.9-15.4,15.4-15.4H1000c8.5,0,15.4,6.9,15.4,15.4v265.4C1015.4,1279,1008.5,1285.9,1000,1285.9z M318.7,1020.5v117.3       c0,50.8,32.4,95.7,80.7,111.5c11.8,3.9,24.1,5.8,36.7,5.8h548.6v-234.7H318.7z"/></g><g><path class="st9" d="M400.4,1740c-11.6,0-23.3-2.5-34.4-7.6c-3.1-1.4-6.3-3.1-9.3-5.1c-23.8-15-38-40.9-38-69       c0-15.5,4.3-30.6,12.7-43.7l76.3-120.1l20.9-33.1c2.8-4.5,7.7-7.2,13-7.2h157.2c5.6,0,10.7,3,13.4,7.9       c2.7,4.9,2.5,10.9-0.4,15.6l-20.9,33.2L469.6,1702C454.2,1726.3,427.7,1740,400.4,1740z M450.2,1484.9l-16.4,26l-76.3,120.1       c-5.2,8.2-7.9,17.6-7.9,27.2c0,17.6,8.9,33.8,23.7,43.2c1.8,1.2,3.7,2.2,5.7,3.1c23.3,10.9,51,2.7,64.7-18.9l122.1-192.1       l5.4-8.6H450.2z"/></g><g><path class="st9" d="M1615.4,1740c-28.2,0-54-14.2-69.1-38L1424.9,1511l-20.9-33.2c-3-4.7-3.2-10.7-0.4-15.6       c2.7-4.9,7.9-7.9,13.4-7.9h157.2c5.3,0,10.2,2.7,13,7.2l20.9,33.2l76.3,120c8.3,13.1,12.7,28.2,12.7,43.7       c0,29.1-15.7,56.3-41,70.8C1643.8,1736.2,1629.7,1740,1615.4,1740z M1444.8,1484.9l6.1,9.6l121.4,191       c9.4,14.9,25.5,23.8,43.1,23.8c8.9,0,17.7-2.4,25.4-6.8c15.8-9.1,25.6-26,25.6-44.2c0,0,0,0,0,0c0-9.7-2.7-19.1-7.9-27.2       l-76.3-120.1l-16.4-26.1H1444.8z"/></g><g><path class="st9" d="M203.8,1020.5c-34.6,0-68.3-9.8-97.4-28.4c-3.6-2.3-7.2-4.8-10.8-7.5c-0.2-0.1-0.3-0.2-0.5-0.4       c-46.1-34.6-72.5-87.4-72.5-145c0-99.9,81.3-181.2,181.2-181.2c39.6,0,77.2,12.5,108.7,36.2c17.5,13.2,32.4,29.2,44.1,47.6       c18.6,29.1,28.4,62.8,28.4,97.4c0,57.6-26.4,110.4-72.5,145C281,1007.9,243.4,1020.5,203.8,1020.5z M113.1,959.4       c0.1,0.1,0.3,0.2,0.4,0.3c3.2,2.4,6.3,4.5,9.4,6.5c24.2,15.4,52.1,23.6,80.9,23.6c32.9,0,64.1-10.4,90.3-30.1       c38.3-28.7,60.2-72.6,60.2-120.4c0-28.8-8.2-56.8-23.6-80.9c-9.7-15.3-22.1-28.6-36.6-39.5c-26.2-19.7-57.4-30.1-90.3-30.1       c-83,0-150.5,67.5-150.5,150.5C53.3,886.9,75.1,930.6,113.1,959.4z"/></g><g><path class="st9" d="M1796.2,1020.5c-34.7,0-68.4-9.8-97.4-28.4c-3.4-2.2-6.9-4.6-10.4-7.1l-0.8-0.6       c-46.2-34.7-72.6-87.5-72.6-145.1s26.4-110.4,72.5-145c31.6-23.7,69.2-36.2,108.7-36.2c62.2,0,119.3,31.3,152.8,83.8       c18.6,29.1,28.4,62.7,28.4,97.4c0,57.5-26.4,110.4-72.5,145C1873.3,1007.9,1835.7,1020.5,1796.2,1020.5z M1705.8,959.6       c0.2,0.2,0.4,0.3,0.6,0.5l0.2,0.1c2.9,2.1,5.8,4.1,8.6,5.9c24.1,15.4,52.1,23.6,80.9,23.6c32.9,0,64.1-10.4,90.3-30.1       c38.3-28.7,60.2-72.6,60.2-120.4c0-28.8-8.2-56.8-23.6-80.9c-27.8-43.6-75.3-69.6-126.9-69.6c-32.9,0-64.1,10.4-90.3,30.1       c-38.3,28.7-60.2,72.6-60.2,120.4C1645.6,887,1667.6,930.9,1705.8,959.6z"/></g></g></g></g></svg>