<?xml version="1.0" standalone="no"?>
<!DOCTYPE svg PUBLIC "-//W3C//DTD SVG 20010904//EN"
 "http://www.w3.org/TR/2001/REC-SVG-20010904/DTD/svg10.dtd">
<svg version="1.0" xmlns="http://www.w3.org/2000/svg"
 width="245.000000pt" height="284.000000pt" viewBox="0 0 245.000000 284.000000"
 preserveAspectRatio="xMidYMid meet">

<g transform="translate(0.000000,284.000000) scale(0.100000,-0.100000)"
fill="#000000" stroke="none">
<path d="M333 2768 c-45 -33 -52 -48 -78 -176 -41 -204 -50 -298 -49 -522 1
-362 56 -632 194 -956 44 -104 131 -264 153 -283 11 -8 247 -10 888 -9 l874 3
42 83 c52 105 73 189 73 290 0 93 -26 181 -70 234 -94 114 -306 128 -560 36
-199 -72 -280 -33 -280 133 0 136 48 280 196 589 96 202 124 284 124 365 0 93
-46 130 -152 123 -52 -3 -86 -15 -198 -70 -159 -77 -298 -131 -430 -165 -77
-20 -113 -24 -195 -21 -136 5 -152 15 -215 138 -27 52 -63 111 -79 130 l-30
35 14 -50 c61 -217 87 -447 90 -821 4 -309 10 -372 41 -421 18 -29 62 -30 96
-3 85 66 277 90 410 50 173 -52 304 -144 533 -376 170 -172 226 -214 283 -214
52 0 130 30 198 75 69 46 84 53 84 35 0 -19 -52 -58 -129 -97 -65 -33 -83 -38
-145 -38 -64 0 -76 3 -121 34 -27 19 -115 102 -195 184 -153 157 -272 255
-380 311 -112 58 -163 71 -280 70 -113 0 -174 -16 -240 -60 -50 -34 -101 -32
-133 5 -42 50 -52 117 -49 316 2 203 -12 480 -33 630 -27 197 -76 386 -106
416 -28 28 -105 26 -146 -3z"/>
</g>
</svg>
