<?xml version="1.0" encoding="UTF-8" standalone="no"?>
<!-- Created with Inkscape (http://www.inkscape.org/) -->

<svg
   width="210mm"
   height="297mm"
   viewBox="0 0 210 297"
   version="1.1"
   id="svg5"
   xml:space="preserve"
   inkscape:version="1.2.2 (732a01da63, 2022-12-09)"
   sodipodi:docname="рисунок.svg"
   xmlns:inkscape="http://www.inkscape.org/namespaces/inkscape"
   xmlns:sodipodi="http://sodipodi.sourceforge.net/DTD/sodipodi-0.dtd"
   xmlns="http://www.w3.org/2000/svg"
   xmlns:svg="http://www.w3.org/2000/svg"><sodipodi:namedview
     id="namedview7"
     pagecolor="#ffffff"
     bordercolor="#000000"
     borderopacity="0.25"
     inkscape:showpageshadow="2"
     inkscape:pageopacity="0.0"
     inkscape:pagecheckerboard="0"
     inkscape:deskcolor="#d1d1d1"
     inkscape:document-units="mm"
     showgrid="false"
     inkscape:zoom="1.4912879"
     inkscape:cx="420.44196"
     inkscape:cy="260.84836"
     inkscape:window-width="1920"
     inkscape:window-height="1017"
     inkscape:window-x="-8"
     inkscape:window-y="-8"
     inkscape:window-maximized="1"
     inkscape:current-layer="layer1" /><defs
     id="defs2" /><g
     inkscape:label="Слой 1"
     inkscape:groupmode="layer"
     id="layer1"><rect
       style="opacity:1;fill:#ffffff;fill-opacity:1;stroke:none;stroke-width:0.799999;stroke-linecap:round;stroke-linejoin:round;stroke-dasharray:none;stroke-opacity:1"
       id="rect28575"
       width="68.838707"
       height="58.370968"
       x="117.98386"
       y="167.30646" /><g
       id="g30555"
       transform="translate(-18.983871,-184.33871)"><path
         style="opacity:1;fill:#112d4e;fill-opacity:1;stroke-width:1.782;stroke-dasharray:none"
         d="M 100.95161,239.69354 H 54.467741 c 0,0 -14.903225,-20.04838 -7.274193,-50.20967 0,0 4.790323,-7.45161 10.645162,6.03226 0,0 2.838709,6.74193 24.306451,-4.6129 0,0 11.532258,-4.25807 3.548387,11.53225 0,0 -12.419354,22.35484 -1.064516,21.11291 v 0 c 0,0 16.677418,-7.80645 19.161288,3.37096 0,0 1.95161,4.61289 -2.83871,12.77419 z"
         id="path27583" /><path
         style="opacity:1;fill:none;fill-opacity:1;stroke:#ffffff;stroke-width:0.8;stroke-linecap:round;stroke-linejoin:round;stroke-dasharray:none;stroke-opacity:1"
         d="m 53.225805,188.41935 c 0,0 3.725807,9.22581 3.19355,26.79033 0,0 -1.064516,13.12903 4.790322,8.33871 0,0 7.274194,-4.61291 16.67742,2.48387 v 0 c 0,0 3.725806,2.30645 9.048387,8.51613 0,0 4.080645,4.43548 6.209677,3.7258 0,0 3.016129,0 6.741936,-3.19354"
         id="path28521" /></g><path
       style="fill:#ffffff;fill-opacity:1;stroke:none;stroke-width:0.799999;stroke-linecap:round;stroke-linejoin:round;stroke-dasharray:none;stroke-opacity:1"
       d="m 37.967742,62.451612 v 4.967742 l 4.790323,10e-7"
       id="path30628" /><text
       xml:space="preserve"
       style="font-style:normal;font-variant:normal;font-weight:bold;font-stretch:normal;font-size:11.1702px;font-family:Georgia;-inkscape-font-specification:'Georgia, Bold';font-variant-ligatures:normal;font-variant-caps:normal;font-variant-numeric:normal;font-variant-east-asian:normal;fill:#ffffff;fill-opacity:1;stroke:none;stroke-width:1.09726;stroke-linecap:round;stroke-linejoin:round;stroke-dasharray:none;stroke-opacity:1"
       x="36.182632"
       y="69.560379"
       id="text30908"><tspan
         sodipodi:role="line"
         id="tspan30906"
         style="fill:#ffffff;fill-opacity:1;stroke:none;stroke-width:1.09726"
         x="36.182632"
         y="69.560379">LEEDS</tspan></text><path
       style="fill:none;fill-opacity:1;stroke:#ffffff;stroke-width:2.1;stroke-linecap:round;stroke-linejoin:round;stroke-dasharray:none;stroke-opacity:1"
       d="M 44.709677,73.451613 67.064516,73.274192"
       id="path31066" /></g></svg>
